<svg xmlns="http://www.w3.org/2000/svg" viewBox="0 0 1200 800" fill="none">
  <defs>
    <linearGradient id="bg4" x1="0" y1="0" x2="1" y2="1">
      <stop offset="0%" stop-color="#7f1d1d"/>
      <stop offset="100%" stop-color="#111827"/>
    </linearGradient>
  </defs>
  <rect width="1200" height="800" rx="44" fill="url(#bg4)"/>
  <circle cx="980" cy="170" r="180" fill="#fff" fill-opacity="0.06"/>
  <circle cx="220" cy="630" r="220" fill="#fff" fill-opacity="0.05"/>
  <rect x="125" y="100" width="950" height="600" rx="36" fill="#fff" fill-opacity="0.07" stroke="#fff" stroke-opacity="0.14"/>
  <rect x="185" y="160" width="430" height="480" rx="30" fill="#fff" fill-opacity="0.92"/>
  <rect x="660" y="160" width="350" height="220" rx="30" fill="#fff" fill-opacity="0.92"/>
  <rect x="660" y="420" width="350" height="220" rx="30" fill="#fff" fill-opacity="0.92"/>
  <circle cx="405" cy="320" r="96" fill="#dc2626" fill-opacity="0.16"/>
  <path d="M405 255c-28 29-45 52-45 79 0 25 20 45 45 45s45-20 45-45c0-27-17-50-45-79Z" fill="#dc2626"/>
  <path d="M405 310c-12 0-22 10-22 22 0 12 10 22 22 22" stroke="#fff" stroke-width="8" stroke-linecap="round"/>
  <rect x="730" y="232" width="150" height="26" rx="13" fill="#dc2626" fill-opacity="0.16"/>
  <rect x="730" y="276" width="210" height="16" rx="8" fill="#94a3b8" fill-opacity="0.25"/>
  <rect x="730" y="308" width="180" height="16" rx="8" fill="#94a3b8" fill-opacity="0.25"/>
  <rect x="730" y="492" width="170" height="26" rx="13" fill="#dc2626" fill-opacity="0.16"/>
  <rect x="730" y="538" width="220" height="16" rx="8" fill="#94a3b8" fill-opacity="0.25"/>
  <rect x="730" y="570" width="180" height="16" rx="8" fill="#94a3b8" fill-opacity="0.25"/>
  <path d="M940 245h36m-18-18v36" stroke="#dc2626" stroke-width="8" stroke-linecap="round"/>
  <path d="M940 505h36m-18-18v36" stroke="#dc2626" stroke-width="8" stroke-linecap="round"/>
  <circle cx="235" cy="530" r="64" fill="#dc2626" fill-opacity="0.18"/>
  <circle cx="985" cy="530" r="64" fill="#dc2626" fill-opacity="0.14"/>
</svg>